<?xml version="1.0" standalone="no"?>
<!DOCTYPE svg PUBLIC "-//W3C//DTD SVG 20010904//EN"
 "http://www.w3.org/TR/2001/REC-SVG-20010904/DTD/svg10.dtd">
<svg version="1.0" xmlns="http://www.w3.org/2000/svg"
 width="600.000000pt" height="600.000000pt" viewBox="0 0 600.000000 600.000000"
 preserveAspectRatio="xMidYMid meet">

<g transform="translate(0.000000,600.000000) scale(0.100000,-0.100000)"
fill="#000000" stroke="none">
<path d="M2168 4335 c-41 -23 -48 -45 -48 -149 l0 -96 -129 0 c-146 0 -191
-11 -255 -64 -23 -18 -52 -55 -66 -82 l-25 -49 0 -1025 0 -1025 22 -40 c12
-23 42 -60 66 -82 84 -78 11 -74 1288 -71 1127 3 1134 3 1179 24 53 25 103 73
133 129 l22 40 3 1009 c3 1112 5 1061 -59 1139 -17 20 -52 49 -77 65 -45 26
-55 27 -194 30 l-148 4 0 98 c0 90 -2 101 -24 127 -34 39 -98 39 -132 0 -22
-26 -24 -37 -24 -128 l0 -99 -305 0 -305 0 0 99 c0 83 -3 102 -20 124 -27 34
-70 43 -109 23 -44 -23 -51 -44 -51 -150 l0 -96 -305 0 -305 0 0 99 c0 89 -2
103 -22 125 -29 32 -74 41 -110 21z m-20 -607 c33 -34 97 -31 128 5 21 25 24
38 24 107 0 88 8 94 48 35 49 -71 38 -159 -28 -219 -71 -64 -158 -61 -226 8
-68 67 -72 154 -11 223 l32 37 5 -87 c4 -73 9 -90 28 -109z m790 0 c33 -34 97
-31 128 5 21 25 24 38 24 110 l1 82 34 -37 c63 -68 59 -156 -9 -224 -72 -72
-160 -72 -232 0 -68 67 -72 154 -11 223 l32 37 5 -87 c4 -73 9 -90 28 -109z
m790 0 c33 -34 97 -31 128 5 21 25 24 38 24 108 0 75 1 79 19 70 25 -14 61
-89 61 -129 0 -48 -22 -93 -63 -129 -69 -61 -156 -56 -223 11 -68 67 -72 154
-11 223 l32 37 5 -87 c4 -73 9 -90 28 -109z m512 -1081 c0 -863 5 -809 -80
-854 l-44 -23 -1127 2 c-1126 3 -1128 3 -1156 24 -15 11 -38 36 -50 54 l-23
33 0 763 0 764 1240 0 1240 0 0 -763z"/>
<path d="M2570 3070 l0 -170 168 2 167 3 3 168 2 167 -170 0 -170 0 0 -170z"/>
<path d="M3092 3073 l3 -168 168 -3 167 -2 0 170 0 170 -170 0 -170 0 2 -167z"/>
<path d="M3620 3070 l0 -170 168 2 167 3 3 168 2 167 -170 0 -170 0 0 -170z"/>
<path d="M2042 2593 l3 -168 168 -3 167 -2 0 170 0 170 -170 0 -170 0 2 -167z"/>
<path d="M2570 2590 l0 -170 168 2 167 3 3 168 2 167 -170 0 -170 0 0 -170z"/>
<path d="M3092 2593 l3 -168 168 -3 167 -2 0 170 0 170 -170 0 -170 0 2 -167z"/>
<path d="M3620 2590 l0 -170 168 2 167 3 3 168 2 167 -170 0 -170 0 0 -170z"/>
<path d="M2042 2113 l3 -168 168 -3 167 -2 0 170 0 170 -170 0 -170 0 2 -167z"/>
<path d="M2570 2110 l0 -170 168 2 167 3 3 168 2 167 -170 0 -170 0 0 -170z"/>
<path d="M3092 2113 l3 -168 168 -3 167 -2 0 170 0 170 -170 0 -170 0 2 -167z"/>
<path d="M3620 2110 l0 -170 168 2 167 3 3 168 2 167 -170 0 -170 0 0 -170z"/>
</g>
</svg>
